<svg height="512" viewBox="0 0 59 58" width="512" xmlns="http://www.w3.org/2000/svg"><g id="Page-1" fill="none" fill-rule="evenodd"><g id="096---Listening" fill-rule="nonzero"><path id="Shape" d="m4 46v3c0 4.971 3.582 9 8 9s8-4.029 8-9c-.0131727-4.4086747 1.9032039-8.6024157 5.245-11.478 5.6324464-4.699877 8.8482409-11.686838 8.755-19.022 0-10.217-7.611-18.5-17-18.5s-17 8.283-17 18.5v.047c.03651432 2.3312328.67777467 4.6130308 1.861 6.622.62618429 1.0711417 1.16332371 2.1919102 1.606 3.351.42168955 1.2102424.03413686 2.5548539-.967 3.355-.95356574.7558845-1.50667672 1.9081991-1.5 3.125.00029254 1.3407814.6675477 2.5935718 1.78 3.342.75339256.5249492 1.20758425 1.38084 1.22 2.299z" fill="#fdd7ad"/><path id="Shape" d="m15.91 32.15c.0614257-.5946712.0914674-1.1921666.09-1.79 0-5.71-4.18-10.36-9.32-10.36-.54407627-.0027513-1.08697391.0508682-1.62.16-.06-.68-.06-1.26-.06-1.62-.00541932-1.5936167.24787447-3.1775472.75-4.69 1.1705215-.5607335 2.45210124-.851225 3.75-.85 5.24 0 9.5 4.65 9.5 10.36.1422235 3.2188669-.9648754 6.3681872-3.09 8.79z" fill="#f09372"/><path id="Shape" d="m17 4c-5.573 0-10.325 3.952-12.17 9.476-.013.033-.022.065-.032.1-.5272418 1.6040759-.79724954 3.2814989-.8 4.97 0 1.2 0 4.87 2.293 7.163.39237889.3789722 1.01608478.3735524 1.40181858-.0121814.38573379-.3857338.39115363-1.0094397.01218142-1.4018186-.82155739-.9132539-1.3491204-2.0527063-1.514-3.27.161-.01.32-.023.487-.023 4.59-.002 8.322 4.198 8.322 9.358 0 .479-.023.929-.06 1.373-.4978832.5315763-1.0275205 1.0324943-1.586 1.5-2.9125701 2.3851948-4.52684196 6.0063691-4.354 9.767 0 .5522847.44771525 1 1 1 .5522847 0 1-.4477153 1-1-.1720387-3.1707753 1.1831952-6.2325036 3.646-8.237 3.5281209-2.707959 5.5239529-6.9587008 5.354-11.403 0-6.26-4.71-11.36-10.5-11.36-.66513337.0017525-1.32831115.0721251-1.979.21 1.7381919-3.68980728 5.4020384-6.09011184 9.479-6.21 6.065 0 11 5.627 11 12.544.0786047 5.4490737-2.2845859 10.6475796-6.442 14.171-.138.119-.291.247-.457.386-1.99 1.654-6.129 5.1-7.095 13.789-.0584247.5475087.3367459 1.0392368.884 1.1.0364619.0052945.0731811.0086327.11.01.5093591-.0004745.9369707-.3837316.993-.89.877-7.89 4.46-10.871 6.386-12.472.177-.148.34-.284.486-.41 4.602707-3.8990033 7.2200661-9.6524245 7.135-15.684 0-8.02-5.832-14.544-13-14.544zm-7.5 10c4.687 0 8.5 4.2 8.5 9.36.0453636 1.8921894-.3303607 3.7708112-1.1 5.5-.671-5.56-4.993-9.86-10.22-9.86-.231 0-.453.017-.676.033 0-.192 0-.359 0-.489.00036187-1.3373184.19162438-2.6677377.568-3.951.92726505-.3890787 1.92241707-.5906241 2.928-.593z" fill="#f9c795"/><g fill="#3b97d3"><path id="Shape" d="m52 32c-.2675931-.0008423-.5236852-.1088981-.711-.3-2.6707148-2.5286775-4.215708-6.0228332-4.289-9.7.073292-3.6771668 1.6182852-7.1713225 4.289-9.7.2434849-.2829182.6242712-.4066794.9875645-.3209732.3632934.0857062.6486129.3666115.7399727.7285245.0913599.3619129-.0264495.7445825-.3055372.9924487-2.2976519 2.1587357-3.6342938 5.1482608-3.711 8.3.0767062 3.1517392 1.4133481 6.1412643 3.711 8.3.2814534.2871359.3635636.7149153.2084243 1.085853-.1551393.3709378-.5173529.6128853-.9194243.614147z"/><path id="Shape" d="m55 28c-.2853956.0000447-.5572119-.1218542-.747-.335-3.0038043-3.1793913-3.0038043-8.1506087 0-11.33.2375816-.2668774.5994935-.386734.9494069-.314421s.6346682.3258096.747.665.0351747.7125436-.2024069.979421c-2.3292957 2.4206558-2.3292957 6.2493442 0 8.67.2619932.2942374.3268083.7148835.165539 1.0743391s-.5185642.5907226-.912539.5906609z"/><path id="Shape" d="m58 25c-.2471989.0005009-.4857149-.0911263-.669-.257-.8404607-.6621414-1.3309783-1.6730443-1.3309783-2.743s.4905176-2.0808586 1.3309783-2.743c.2641632-.2474727.6414391-.3328718.9864254-.2232844.3449863.1095873.6038197.397051.6767457.7516024.072926.3545515-.0514414.7208339-.3251711.957682-.3877047.3080639-.6300126.7633419-.669 1.257.0389874.4936581.2812953.9489361.669 1.257.3075413.2770319.412623.7149015.2643025 1.101333s-.5193843.6415464-.9333025.641667z"/><path id="Shape" d="m49 36c-.2614905.0004963-.5127729-.1014526-.7-.284-4.12-4.016-6.3-8.759-6.3-13.716s2.18-9.7 6.3-13.716c.2558022-.25008593.6255924-.34470603.9700742-.24821782.3444819.09648821.6113204.36942588.7.71600002.0886797.34657414-.014272.71413189-.2700742.9642178-3.729 3.632-5.7 7.884-5.7 12.284s1.971 8.652 5.7 12.284c.2914943.2842056.3815965.7167532.2278263 1.09371-.1537703.3769569-.5207131.6230642-.9278263.62229z"/><path id="Shape" d="m45 39c-.2696744.0007694-.5282283-.1074121-.717-.3-4.764-4.9-7.283-10.675-7.283-16.7s2.519-11.8 7.283-16.7c.2500859-.25615943.6178343-.35944125.9647178-.27094021s.6202024.35533953.717.7c.0967976.34466046.0023681.71478078-.2477178.97094021-4.395 4.514-6.717 9.806-6.717 15.3s2.322 10.786 6.717 15.3c.2822166.2879152.3639371.7171426.2072617 1.0886183-.1566753.3714758-.5210991.6125352-.9242617.6113817z"/></g></g></g></svg>