<?xml version="1.0"?>
<svg xmlns="http://www.w3.org/2000/svg" xmlns:xlink="http://www.w3.org/1999/xlink" xmlns:svgjs="http://svgjs.com/svgjs" version="1.1" width="512" height="512" x="0" y="0" viewBox="0 0 512 512" style="enable-background:new 0 0 512 512" xml:space="preserve" class=""><g>
<g xmlns="http://www.w3.org/2000/svg">
	<g>
		<path d="M409.152,228.785c-6.915,3.862-15.681,6.843-27.429,6.843c-21.19,0-32.693-9.696-41.091-16.775    c-7.188-6.059-11.527-9.717-21.764-9.717c-10.238,0-14.576,3.657-21.765,9.717c-8.399,7.08-19.901,16.775-41.091,16.775    c-21.19,0-32.693-9.696-41.092-16.774c-7.189-6.06-11.528-9.718-21.767-9.718c-10.238,0-14.576,3.657-21.765,9.717    c-8.399,7.08-19.902,16.775-41.092,16.775c-11.755,0-20.525-2.985-27.442-6.849L0,446.17h512L409.152,228.785z" fill="#ff2c37" data-original="#000000" style="" class=""/>
	</g>
</g>
<g xmlns="http://www.w3.org/2000/svg">
	<g>
		<path d="M332.056,65.83H179.945l-64.218,135.735c3.971,2.61,8.087,4.077,14.566,4.077c10.238,0,14.577-3.657,21.765-9.717    c8.399-7.08,19.902-16.775,41.091-16.775c21.191,0,32.694,9.696,41.093,16.775c7.189,6.059,11.528,9.717,21.766,9.717    c10.238,0,14.576-3.657,21.765-9.717c8.399-7.08,19.901-16.775,41.091-16.775c21.19,0,32.692,9.696,41.09,16.775    c7.188,6.059,11.527,9.717,21.765,9.717c6.472,0,10.586-1.464,14.553-4.07L332.056,65.83z" fill="#ff2c37" data-original="#000000" style="" class=""/>
	</g>
</g>
<g xmlns="http://www.w3.org/2000/svg">
</g>
<g xmlns="http://www.w3.org/2000/svg">
</g>
<g xmlns="http://www.w3.org/2000/svg">
</g>
<g xmlns="http://www.w3.org/2000/svg">
</g>
<g xmlns="http://www.w3.org/2000/svg">
</g>
<g xmlns="http://www.w3.org/2000/svg">
</g>
<g xmlns="http://www.w3.org/2000/svg">
</g>
<g xmlns="http://www.w3.org/2000/svg">
</g>
<g xmlns="http://www.w3.org/2000/svg">
</g>
<g xmlns="http://www.w3.org/2000/svg">
</g>
<g xmlns="http://www.w3.org/2000/svg">
</g>
<g xmlns="http://www.w3.org/2000/svg">
</g>
<g xmlns="http://www.w3.org/2000/svg">
</g>
<g xmlns="http://www.w3.org/2000/svg">
</g>
<g xmlns="http://www.w3.org/2000/svg">
</g>
</g></svg>
