<svg id="Layer_1" data-name="Layer 1" xmlns="http://www.w3.org/2000/svg" viewBox="0 0 400 400"><defs><style>.cls-1{fill:#fff;}</style></defs><title>Isotipo blanco</title><path class="cls-1" d="M200,5.84C92.77,5.84,5.84,92.77,5.84,200S92.77,394.16,200,394.16,394.16,307.23,394.16,200,307.23,5.84,200,5.84Zm.68,58.8a26,26,0,1,1-26,26A26,26,0,0,1,200.68,64.64Zm103.79,62.1a180.73,180.73,0,0,1-11.64,19.33L227.14,246.85v83.24q0,16.29-7.52,24.35t-19.15,8.05q-11.82,0-19.16-8T174,330.09V246.85l-64.08-99.34A206.49,206.49,0,0,1,98,126.56Q94.5,119,94.5,113.49a20.86,20.86,0,0,1,7.07-15.75A24.57,24.57,0,0,1,119,91.12q10.92,0,16.56,6.18t16.91,24.61l49,79.65,49.58-79.65q4.49-7.34,7.52-12.35a77.85,77.85,0,0,1,6.71-9.4,26.87,26.87,0,0,1,8.15-6.71,23.44,23.44,0,0,1,10.92-2.33,23.08,23.08,0,0,1,16.74,6.53q6.7,6.54,6.71,15.13A31.73,31.73,0,0,1,304.47,126.74Z"/></svg>