<svg xmlns="http://www.w3.org/2000/svg" x="0px" y="0px"
width="48" height="48"
viewBox="0 0 50 50"
style=" fill:#000000;"><g id="surface1"><path style=" " d="M 33.90625 3 C 33.507813 3 33.195313 3.292969 33.09375 3.59375 L 30.1875 11.5 L 23.40625 20 L 17.8125 20 L 9.40625 19 L 6.90625 19 C 5.40625 19 2.40625 20.511719 1.90625 20.8125 C 1.105469 21.210938 0.386719 21.792969 0.1875 22.59375 C -0.113281 23.292969 0.0117188 23.988281 0.3125 24.6875 C 0.914063 25.886719 2.289063 26.585938 3.6875 26.1875 L 4 26.09375 L 4 38.90625 C 4 40.707031 5.085938 42.3125 6.6875 42.8125 C 7.988281 43.210938 9.3125 42.988281 10.3125 42.1875 C 11.3125 41.386719 11.90625 40.199219 11.90625 39 L 11.90625 35 L 15.6875 35 C 16.585938 35.398438 20.195313 37 23.59375 37 L 30 37 L 30 38.90625 C 30 40.707031 31.085938 42.3125 32.6875 42.8125 C 33.085938 42.914063 33.5 43 34 43 C 34.800781 43 35.707031 42.6875 36.40625 42.1875 C 37.40625 41.386719 38 40.199219 38 39 L 38 34.3125 C 38.699219 33.3125 41 30.007813 41 26.40625 C 41 25.105469 40.792969 23.90625 40.59375 22.90625 L 39 22.90625 C 36.601563 22.90625 34.90625 23.8125 34.90625 23.8125 C 34.804688 24.011719 34.601563 24 34.5 24 C 34.101563 24 33.792969 23.800781 33.59375 23.5 C 33.292969 23 33.5 22.394531 34 22.09375 C 34.101563 22.09375 36.101563 21 39 21 C 42.699219 21 45.59375 20.585938 47.09375 19.6875 C 48.59375 18.789063 49.585938 17.789063 49.6875 17.6875 C 49.886719 17.488281 50 17.300781 50 17 L 50 14 C 50 13.601563 49.710938 13.199219 49.3125 13 L 43.8125 11.1875 L 41.59375 9.1875 C 41.492188 9.085938 41.289063 9 41.1875 9 L 37.59375 8.09375 L 34.8125 3.5 C 34.710938 3.199219 34.304688 3 33.90625 3 Z M 40 13 C 40.601563 13 41 13.398438 41 14 C 41 14.601563 40.601563 15 40 15 C 39.398438 15 39 14.601563 39 14 C 39 13.398438 39.398438 13 40 13 Z M 14 37 L 14 39 C 14 39.800781 13.800781 40.613281 13.5 41.3125 C 14.199219 42.414063 15.300781 43 16.5 43 C 16.699219 43 16.988281 43.007813 17.1875 42.90625 C 18.289063 42.605469 19.1875 41.90625 19.6875 40.90625 C 19.988281 40.207031 20.113281 39.300781 19.8125 38.5 C 17.914063 38.101563 16.210938 37.398438 15.3125 37 Z "></path></g></svg>
