<svg xmlns="http://www.w3.org/2000/svg" x="0px" y="0px"
width="50" height="50"
viewBox="0 0 226 226"
style=" fill:#e54d42;"><g fill="none" fill-rule="nonzero" stroke="none" stroke-width="1" stroke-linecap="butt" stroke-linejoin="miter" stroke-miterlimit="10" stroke-dasharray="" stroke-dashoffset="0" font-family="none" font-weight="none" font-size="none" text-anchor="none" style="mix-blend-mode: normal"><path d="M0,226v-226h226v226z" fill="none"></path><g fill="#e54d42"><path d="M94.92,9.04c-7.43746,0 -13.56,6.12255 -13.56,13.56v9.04h-45.2c-1.63007,-0.02305 -3.14629,0.83338 -3.96805,2.24135c-0.82176,1.40797 -0.82176,3.14934 0,4.55731c0.82176,1.40797 2.33798,2.2644 3.96805,2.24135h4.52v162.72c0,7.47608 6.08392,13.56 13.56,13.56h117.52c7.47608,0 13.56,-6.08392 13.56,-13.56v-162.72h4.52c1.63007,0.02305 3.14629,-0.83338 3.96805,-2.24135c0.82176,-1.40797 0.82176,-3.14934 0,-4.55731c-0.82176,-1.40797 -2.33798,-2.2644 -3.96805,-2.24135h-45.2v-9.04c0,-7.43745 -6.12254,-13.56 -13.56,-13.56zM94.92,18.08h36.16c2.50654,0 4.52,2.01345 4.52,4.52v9.04h-45.2v-9.04c0,-2.50655 2.01346,-4.52 4.52,-4.52zM85.88,63.28c2.49504,0 4.52,2.02496 4.52,4.52v113c0,2.49956 -2.02496,4.52 -4.52,4.52c-2.49504,0 -4.52,-2.02044 -4.52,-4.52v-113c0,-2.49504 2.02496,-4.52 4.52,-4.52zM113,63.28c2.49504,0 4.52,2.02496 4.52,4.52v113c0,2.49956 -2.02496,4.52 -4.52,4.52c-2.49504,0 -4.52,-2.02044 -4.52,-4.52v-113c0,-2.49504 2.02496,-4.52 4.52,-4.52zM140.12,63.28c2.49956,0 4.52,2.02496 4.52,4.52v113c0,2.49956 -2.02044,4.52 -4.52,4.52c-2.49956,0 -4.52,-2.02044 -4.52,-4.52v-113c0,-2.49504 2.02044,-4.52 4.52,-4.52z"></path></g></g></svg>