<svg height="512" viewBox="0 0 60 60" width="512" xmlns="http://www.w3.org/2000/svg"><g id="Page-1" fill="none" fill-rule="evenodd"><g id="031---Gas-Leak" fill-rule="nonzero"><g id="Color" transform="translate(1)"><rect id="Rectangle-path" fill="#00bcd4" height="28" rx="2" width="10" x="8" y="31"/><path id="Shape" d="m16 31h-3c1.1045695 0 2 .8954305 2 2v24c0 1.1045695-.8954305 2-2 2h3c1.1045695 0 2-.8954305 2-2v-24c0-1.1045695-.8954305-2-2-2z" fill="#00838f"/><path id="Shape" d="m8 34v22h-6c-1.1045695 0-2-.8954305-2-2v-18c0-1.1045695.8954305-2 2-2z" fill="#009688"/><path id="Rectangle-path" d="m5 34h3v22h-3z" fill="#00695c"/><path id="Shape" d="m58 36v18c0 1.1045695-.8954305 2-2 2h-38v-22h15l-3.62 6.34c-.2223522.3905135-.1569024.8813871.16 1.2l2.17 2.17c.1847442.1862606.2888954.4376601.29.7v2.18c.0016958.4044441.2468472.7680455.6211476.9212679s.8040433.0658935 1.0888524-.2212679l2.71-2.71c.3377237-.3355156.3921051-.8625973.13-1.26l-1.21-1.81c-.1786328-.3094011-.1786328-.6905989 0-1l3.66-6.51h17c1.1045695 0 2 .8954305 2 2z" fill="#009688"/><path id="Shape" d="m26.54 41.54 2.17 2.17c.1847442.1862606.2888954.4376601.29.7v2.18c.0016958.4044441.2468472.7680455.6211476.9212679s.8040433.0658935 1.0888524-.2212679l1.29-1.29v-1.59c-.0011046-.2623399-.1052558-.5137394-.29-.7l-2.17-2.17c-.3169024-.3186129-.3823522-.8094865-.16-1.2l3.62-6.34h-3l-3.62 6.34c-.2223522.3905135-.1569024.8813871.16 1.2z" fill="#00695c"/><path id="Shape" d="m56 34h-3c1.1045695 0 2 .8954305 2 2v18c0 1.1045695-.8954305 2-2 2h3c1.1045695 0 2-.8954305 2-2v-18c0-1.1045695-.8954305-2-2-2z" fill="#00695c"/><path id="Shape" d="m45.66 15.63c.6595086 1.312865.2711743 2.9101927-.9174546 3.7737478-1.188629.863555-2.8277751.7392193-3.8725454-.2937478-.5176605 2.2736238-2.5381914 3.8875591-4.87 3.89-.7911058-.0077347-1.5690846-.2030862-2.27-.57-.5965281 1.5401681-2.0783452 2.5553201-3.73 2.5553201s-3.1334719-1.015152-3.73-2.5553201c-.7009154.3669138-1.4788942.5622653-2.27.57-2.3318086-.0024409-4.3523395-1.6163762-4.87-3.89-1.0447703 1.0329671-2.6839164 1.1573028-3.8725454.2937478-1.1886289-.8635551-1.5769632-2.4608828-.9174546-3.7737478-1.7006116-.7870954-2.6268438-2.6493158-2.2284675-4.4804071.3983764-1.83109123 2.0145651-3.14017679 3.8884675-3.1495929.706618.01047032 1.3974133.21080097 2 .58.1339721-1.6493627 1.0832675-3.12268747 2.5298184-3.92632687 1.4465509-.80363939 3.1990016-.83128469 4.6701816-.07367313.6647792-2.06753957 2.5882147-3.46950988 4.76-3.46950988s4.0952208 1.40197031 4.76 3.46950988c1.47118-.75761156 3.2236307-.72996626 4.6701816.07367313 1.4465509.8036394 2.3958463 2.27696417 2.5298184 3.92632687.6257917-.38326189 1.3461828-.58414018 2.08-.58 1.8739024.00941611 3.4900911 1.31850167 3.8884675 3.1495929.3983763 1.8310913-.5278559 3.6933117-2.2284675 4.4804071z" fill="#9e9e9e"/><g fill="#707070"><path id="Shape" d="m39 8.58c.6025867-.36919903 1.293382-.56952968 2-.58.2927198.00248169.5843509.03600251.87.1-.4311966-2.35704282-2.4739524-4.07681674-4.87-4.1-.509949.00492957-1.0160171.08927426-1.5.25 1.9366839.60018636 3.3191764 2.31052707 3.5 4.33z"/><path id="Shape" d="m31.76 4.55c.6935982-.35540269 1.4606731-.54374699 2.24-.55.1898713-.00988808.3801287-.00988808.57 0-.9963246-2.35988374-3.6366891-3.56044484-6.07-2.76 1.564404.50085456 2.7830134 1.73815428 3.26 3.31z"/><path id="Shape" d="m48 12c0-2.209139-1.790861-4-4-4-.5083271.00105522-1.0113861.10302663-1.48.3 1.4691123.60846686 2.438299 2.0293435 2.4686643 3.6191865.0303654 1.589843-.8838579 3.046692-2.3286643 3.7108135.7202655 1.4161099.2115983 3.1482096-1.16 3.95 1.1479614.647948 2.5843942.4706234 3.5403181-.4370448.9559239-.9076681 1.2073509-2.3329988.6196819-3.5129552 1.4223344-.6487692 2.336369-2.0666947 2.34-3.63z"/><path id="Shape" d="m40 20c-.800289-.0006887-1.5671301-.3211059-2.13-.89-.3961674 1.7194411-1.6692837 3.1027675-3.35 3.64.4773317.1597873.976668.2441346 1.48.25 2.0088114-.0033345 3.8205829-1.2085564 4.6-3.06-.1973826.0407233-.3984619.0608313-.6.06z"/><path id="Shape" d="m33 23c-.7911058-.0077347-1.5690846-.2030862-2.27-.57-.3997227 1.0287158-1.2067174 1.8465668-2.23 2.26.4749066.2004632.9845351.3057864 1.5.31 1.434739.005696 2.7626361-.7574632 3.48-2-.16 0-.32 0-.48 0z"/></g><path id="Shape" d="m46 17c0 9-4.22 10-7 10-3 0-3 2-3 2s0-2-3-2-3-2-3-2c1.6553364-.0023399 3.1382183-1.0240574 3.73-2.57.7009154.3669138 1.4788942.5622653 2.27.57 2.3318086-.0024409 4.3523395-1.6163762 4.87-3.89.8557116.8627584 2.1473566 1.1241063 3.2711624.6618782s1.8577829-1.5567267 1.8588376-2.7718782z" fill="#37474f"/></g><g id="Outline" fill="#000"><path id="Shape" d="m57 33h-17c-.3586848-.001424-.690659.1893658-.87.5l-3.69 6.5c-.3758659.6568643-.3487739 1.4696237.07 2.1l1.2 1.8-2.71 2.69v-2.18c-.0022328-.5295768-.2144122-1.0366497-.59-1.41l-2.16-2.17 3.62-6.33c.1786328-.3094011.1786328-.6905989 0-1-.179341-.3106342-.5113152-.501424-.87-.5h-14c0-1.6568542-1.3431458-3-3-3h-6c-1.65685425 0-3 1.3431458-3 3h-5c-1.65685425 0-3 1.3431458-3 3v18c0 1.6568542 1.34314575 3 3 3h5c0 1.6568542 1.34314575 3 3 3h6c1.6568542 0 3-1.3431458 3-3h37c1.6568542 0 3-1.3431458 3-3v-18c0-1.6568542-1.3431458-3-3-3zm-54 22c-.55228475 0-1-.4477153-1-1v-18c0-.5522847.44771525-1 1-1h5v20zm15 2c0 .5522847-.4477153 1-1 1h-6c-.5522847 0-1-.4477153-1-1v-24c0-.5522847.4477153-1 1-1h6c.5522847 0 1 .4477153 1 1zm40-3c0 .5522847-.4477153 1-1 1h-37v-20h12.28l-2.77 4.84c-.4498663.7834094-.3187163 1.7711326.32 2.41l2.17 2.16v2.18c.0023492.804975.4870706 1.5300867 1.23 1.84.7467658.3106498 1.6071269.1409456 2.18-.43l2.72-2.71c.6775741-.675063.7823485-1.7353794.25-2.53l-1.21-1.76 3.41-6h16.42c.5522847 0 1 .4477153 1 1z"/><path id="Shape" d="m50 12c0-2.76142375-2.2385763-5-5-5-.4395835-.00057075-.8771096.06000978-1.3.18-.7740489-2.49520083-3.0875221-4.19174778-5.7-4.18-.5722511.00390984-1.1411257.08806288-1.69.25-1.037362-1.97182799-3.0819458-3.20645387-5.31-3.20645387s-4.272638 1.23462588-5.31 3.20645387c-.5488743-.16193712-1.1177489-.24609016-1.69-.25-2.6124779-.01174778-4.9259511 1.68479917-5.7 4.18-.4228904-.11999022-.8604165-.18057075-1.3-.18-2.1713527.00620824-4.0904999 1.4131336-4.7497119 3.4820102-.6592121 2.0688766.0922147 4.3267346 1.8597119 5.5879898-.0710565.3049589-.1079503.616879-.11.93-.0009251 1.3536305.6828145 2.6158932 1.8171116 3.3545992 1.1342971.7387059 2.5652413.8536216 3.8028884.3054008 1.3163611 2.6508788 4.3691126 3.9458569 7.19 3.05.758305 1.1883686 1.9881874 1.9961611 3.38 2.22.39 1 1.45 2.07 3.81 2.07 1.84 0 2 .86 2 1v2c0 .5522847.4477153 1 1 1s1-.4477153 1-1v-2c0-.18.18-1 2-1 5.31 0 8-3.7 8-11-.0020497-.313121-.0389435-.6250411-.11-.93 1.3204932-.9353021 2.1067018-2.4518278 2.11-4.07zm-10 14c-1.0816367-.0668005-2.1498805.2679159-3 .94-.8501195-.6720841-1.9183633-1.0068005-3-.94-.484925.0254405-.9687782-.0672123-1.41-.27 1.0718667-.3459501 1.9906846-1.0527331 2.6-2 2.8208874.8958569 5.8736389-.3991212 7.19-3.05.5118652.2181818 1.0636207.3271705 1.62.32.5850769-.0048337 1.16197-.1379629 1.69-.39-1.01 5.39-4.31 5.39-5.69 5.39zm6.24-11.28c-.2504363.1152088-.4422063.3286886-.53.59-.0867488.2573603-.0650893.538935.06.78.1477673.2807938.2266049.5927165.23.91 0 1.1045695-.8954305 2-2 2-.5344918-.0022188-1.0458571-.2182887-1.42-.6-.2613989-.2619438-.6460862-.3581156-1-.25-.3508935.1004384-.6191955.384072-.7.74-.2807843 1.1961872-1.0957486 2.1969625-2.2102704 2.7142099-1.1145217.5172474-2.4049315.4935721-3.4997296-.0642099-.2524091-.1296382-.5480085-.1459412-.813143-.0448468-.2651345.1010945-.4748376.3100668-.576857.5748468-.4525488 1.14504-1.5587741 1.8973214-2.79 1.8973214s-2.3374512-.7522814-2.79-1.8973214c-.1015001-.2673766-.3126234-.4784999-.58-.58-.1153035-.041914-.2373354-.0622527-.36-.06-.1565423.0009386-.3106777.0386161-.45.11-1.0947981.557782-2.3852079.5814573-3.4997296.0642099-1.1145218-.5172474-1.9294861-1.5180227-2.2102704-2.7142099-.0777146-.3590623-.346053-.6466008-.6988974-.7489048s-.7333736-.0028987-.9911026.2589048c-.3717054.3792602-.8789827.5951228-1.41.6-1.1045695 0-2-.8954305-2-2 .0033951-.3172835.0822327-.6292062.23-.91.1250893-.241065.1467488-.5226397.06-.78-.0877937-.2613114-.2795637-.4747912-.53-.59-1.2716014-.5915116-1.9637102-1.9850829-1.6665849-3.3556932.2971253-1.37061033 1.5041884-2.35247305 2.9065849-2.3643068.5407601.00316511 1.0701713.15541408 1.53.44.3094011.17863279.6905989.17863279 1 0 .2728313-.1694409.4476776-.45961143.47-.78.1770338-2.07537362 1.917103-3.66753699 4-3.66.6227845.00531351 1.2357243.15598028 1.79.44.2625878.13037746.5691616.13895762.8386304.02347097.2694689-.11548665.4746858-.3434057.5613696-.62347097.5298496-1.65720119 2.0701562-2.78184566 3.81-2.78184566s3.2801504 1.12464447 3.81 2.78184566c.0866838.28006527.2919007.50798432.5613696.62347097.2694688.11548665.5760426.10690649.8386304-.02347097.5542757-.28401972 1.1672155-.43468649 1.79-.44 2.082897-.00753699 3.8229662 1.58462638 4 3.66.0275576.34530446.2318565.65175281.54.81.3094011.17863279.6905989.17863279 1 0 .436508-.28308916.9403199-.44527518 1.46-.47 1.4023965.01183375 2.6094596.99369647 2.9065849 2.3643068.2971253 1.3706103-.3949835 2.7641816-1.6665849 3.3556932z"/></g></g></g></svg>