<svg xmlns="http://www.w3.org/2000/svg" style="display: none;">
  <!--Símbolo de menú-->
  <symbol id="menu-icon" viewBox="0 0 172 172">
      <g fill="#fffff" fill-rule="nonzero" stroke="none" stroke-width="1" stroke-linecap="butt" stroke-linejoin="miter" stroke-miterlimit="10" stroke-dasharray="" stroke-dashoffset="0" font-family="none" font-weight="none" font-size="none" text-anchor="none" style="mix-blend-mode: normal"><path d="M0,172v-172h172v172z" fill="none"></path><g fill="#000000"><path d="M17.2,40.13333c-2.06765,-0.02924 -3.99087,1.05709 -5.03322,2.843c-1.04236,1.78592 -1.04236,3.99474 0,5.78066c1.04236,1.78592 2.96558,2.87225 5.03322,2.843h137.6c2.06765,0.02924 3.99087,-1.05709 5.03322,-2.843c1.04236,-1.78592 1.04236,-3.99474 0,-5.78066c-1.04236,-1.78592 -2.96558,-2.87225 -5.03322,-2.843zM17.2,80.26667c-2.06765,-0.02924 -3.99087,1.05709 -5.03322,2.843c-1.04236,1.78592 -1.04236,3.99474 0,5.78066c1.04236,1.78592 2.96558,2.87225 5.03322,2.843h137.6c2.06765,0.02924 3.99087,-1.05709 5.03322,-2.843c1.04236,-1.78592 1.04236,-3.99474 0,-5.78066c-1.04236,-1.78592 -2.96558,-2.87225 -5.03322,-2.843zM17.2,120.4c-2.06765,-0.02924 -3.99087,1.05709 -5.03322,2.843c-1.04236,1.78592 -1.04236,3.99474 0,5.78066c1.04236,1.78592 2.96558,2.87225 5.03322,2.843h137.6c2.06765,0.02924 3.99087,-1.05709 5.03322,-2.843c1.04236,-1.78592 1.04236,-3.99474 0,-5.78066c-1.04236,-1.78592 -2.96558,-2.87225 -5.03322,-2.843z"></path></g></g>
  </symbol>
  <symbol id="chevron-down" viewBox="0 0 172 172"
  style=" fill:#ffffff;"><g fill="#ffffff" fill-rule="nonzero" stroke="none" stroke-width="1" stroke-linecap="butt" stroke-linejoin="miter" stroke-miterlimit="10" stroke-dasharray="" stroke-dashoffset="0" font-family="none" font-weight="none" font-size="none" text-anchor="none" style="mix-blend-mode: normal"><path d="M0,172v-172h172v172z" fill="none"></path><g fill="##ffffff"><g id="surface1"><path d="M34.34625,37.84c-0.90031,0.01344 -1.74687,0.37625 -2.37844,1.00781l-20.64,20.64c-1.34375,1.34375 -1.34375,3.52062 0,4.86437l72.24,72.24c1.34375,1.34375 3.52062,1.34375 4.86437,0l72.24,-72.24c1.34375,-1.34375 1.34375,-3.52062 0,-4.86437l-20.64,-20.64c-1.34375,-1.34375 -3.52062,-1.34375 -4.86437,0l-49.16781,49.16781l-49.16781,-49.16781c-0.65844,-0.65844 -1.55875,-1.02125 -2.48594,-1.00781z"></path></g></g></g>
  </symbol>
</svg>
