<?xml version="1.0"?>
<svg xmlns="http://www.w3.org/2000/svg" xmlns:xlink="http://www.w3.org/1999/xlink" xmlns:svgjs="http://svgjs.com/svgjs" version="1.1" width="512" height="512" x="0" y="0" viewBox="0 0 471.121 471.121" style="enable-background:new 0 0 512 512" xml:space="preserve" class=""><g>
<path xmlns="http://www.w3.org/2000/svg" d="M434.408,217.433l-53.42-82.181c-0.42-1.148-1.092-2.174-1.954-3.007l-49.325-75.881c-3.221-4.949-8.134-7.71-13.397-7.556  c-5.311,0.146-10.054,3.183-13.021,8.343l-26.766,46.725L215.598,7.8c-3.145-4.957-7.99-7.8-13.292-7.8  c-5.286,0-10.111,2.827-13.239,7.759L56.119,217.448c-3.245,5.115-3.64,10.974-1.057,15.67c2.568,4.671,7.683,7.46,13.68,7.46  h70.777c-0.751,1.549-1.38,3.155-1.861,4.811c-5.429,17.505,0.966,27.479,5.638,34.766c3.183,4.965,5.482,8.551,5.172,14.9  c-0.358,7.34-6.049,12.259-15.379,19.489c-10.212,7.914-25.646,19.874-16.736,40.027c14.467,32.725-5.792,46.791-40.877,66.07  c-19.846,10.905-38.592,21.206-41.479,38.863c-0.891,5.45,2.806,10.592,8.256,11.482c0.546,0.089,1.089,0.133,1.625,0.133  c4.813,0,9.055-3.484,9.857-8.389c1.315-8.046,16.595-16.442,31.372-24.562c15.368-8.445,32.786-18.017,43.978-31.755  c12.087-14.838,15.014-32.166,8.747-51.605c1.042,0.12,2.099,0.191,3.172,0.191c5.454,0,10.568-1.595,14.64-4.369  c4.071,2.774,9.186,4.369,14.64,4.369s10.568-1.595,14.64-4.369c4.071,2.774,9.186,4.369,14.64,4.369  c5.554,0,10.753-1.659,14.86-4.529c4.107,2.87,9.306,4.529,14.861,4.529c9.591,0,18.145-4.923,21.792-12.543  c1.907-3.985,0.223-8.762-3.763-10.669c-3.986-1.908-8.763-0.223-10.67,3.763c-0.82,1.714-3.611,3.449-7.359,3.449  s-6.539-1.735-7.359-3.449c-1.402-2.93-4.355-4.61-7.405-4.54c-0.062-0.003-0.123,0.001-0.185,0h0  c-3.053-0.074-6.01,1.606-7.413,4.539c-0.821,1.715-3.612,3.45-7.359,3.45c-3.748,0-6.539-1.735-7.359-3.449  c-1.333-2.786-4.067-4.441-6.953-4.538c-0.126-0.006-0.251-0.001-0.376-0.001c-0.091,0.001-0.182-0.004-0.274,0.001  c-2.888,0.095-5.625,1.752-6.958,4.539c-0.82,1.714-3.611,3.449-7.359,3.449s-6.539-1.735-7.359-3.449  c-1.333-2.786-4.067-4.441-6.953-4.538c-0.126-0.006-0.251-0.001-0.376-0.001c-0.091,0.001-0.182-0.004-0.274,0.001  c-2.888,0.095-5.625,1.752-6.958,4.539c-0.82,1.714-3.611,3.449-7.359,3.449c-1.793,0-3.358-0.404-4.602-1.006  c1.806-1.927,4.654-4.323,8.937-7.642c9.922-7.689,22.271-17.259,23.104-34.321c0.622-12.737-4.542-20.791-8.312-26.672  c-4.034-6.291-6.059-9.449-3.35-18.118l0.07-0.235c1.615-5.652,8.338-10.428,14.681-10.428h91.499  c1.125,6.419-0.888,10.42-4.157,16.857c-0.123,0.242-0.249,0.491-0.373,0.737c-1.347,1.037-3.417,1.828-5.939,1.828  c-3.748,0-6.539-1.735-7.359-3.449c-1.333-2.786-4.067-4.442-6.953-4.539c-0.126-0.006-0.251-0.001-0.376-0.001  c-0.091,0.001-0.182-0.004-0.274,0.001c-2.888,0.095-5.625,1.752-6.958,4.539c-0.82,1.714-3.611,3.449-7.359,3.449  s-6.539-1.735-7.359-3.449c-1.333-2.786-4.067-4.442-6.953-4.539c-0.126-0.006-0.251-0.001-0.376-0.001  c-0.091,0.001-0.182-0.004-0.274,0.001c-2.888,0.095-5.625,1.752-6.958,4.539c-0.82,1.714-3.611,3.449-7.359,3.449  c-3.747,0-6.539-1.735-7.359-3.45c-1.907-3.985-6.685-5.67-10.67-3.762c-3.985,1.907-5.669,6.685-3.762,10.67  c3.647,7.619,12.201,12.542,21.791,12.542c5.454,0,10.568-1.595,14.64-4.369c4.071,2.774,9.186,4.369,14.64,4.369  s10.568-1.595,14.64-4.369c3.838,2.615,8.607,4.169,13.71,4.34c-0.969,4.243-1.588,9.054-1.58,14.646  c0.025,17.407,10.974,27.971,19.771,36.458c8.789,8.479,14.175,14.148,14.175,23.453c0,12.515-7.429,21.997-16.032,32.978  c-7.524,9.603-15.988,20.411-18.689,34.084c-0.905,0.251-1.903,0.411-2.995,0.411c-3.748,0-6.539-1.735-7.359-3.449  c-1.402-2.93-4.355-4.61-7.404-4.54c-0.062-0.003-0.123,0.001-0.185,0h0c-3.053-0.074-6.01,1.606-7.414,4.539  c-0.821,1.715-3.612,3.45-7.359,3.45c-3.748,0-6.539-1.735-7.359-3.449c-1.333-2.786-4.067-4.441-6.954-4.538  c-0.126-0.006-0.25-0.001-0.376-0.001c-0.091,0.001-0.182-0.004-0.274,0.001c-2.888,0.095-5.625,1.752-6.958,4.539  c-0.82,1.714-3.611,3.449-7.359,3.449s-6.539-1.735-7.359-3.449c-1.333-2.786-4.067-4.441-6.954-4.538  c-0.126-0.006-0.25-0.001-0.376-0.001c-0.091,0.001-0.182-0.004-0.274,0.001c-2.888,0.095-5.625,1.752-6.958,4.539  c-0.82,1.714-3.611,3.449-7.359,3.449c-3.747,0-6.539-1.735-7.359-3.45c-1.908-3.984-6.685-5.669-10.67-3.762  s-5.669,6.685-3.762,10.67c3.647,7.619,12.201,12.542,21.791,12.542c5.454,0,10.568-1.595,14.64-4.369  c4.071,2.774,9.186,4.369,14.64,4.369s10.568-1.595,14.64-4.369c4.071,2.774,9.186,4.369,14.64,4.369  c5.554,0,10.753-1.659,14.86-4.529c4.107,2.87,9.306,4.529,14.861,4.529c0.905,0,1.796-0.058,2.679-0.143  c1.421,9.381,5.667,19.956,14.096,32.064c1.943,2.791,5.054,4.287,8.216,4.287c1.972,0,3.964-0.582,5.705-1.794  c4.533-3.155,5.649-9.388,2.494-13.921c-19.626-28.192-9.616-40.97,4.239-58.654c9.51-12.138,20.288-25.896,20.288-45.312  c0-18.272-11.25-29.126-20.288-37.847c-8.46-8.161-13.646-13.596-13.658-22.094c-0.016-10.961,3.224-17.342,6.654-24.098  c3.573-7.037,7.518-14.816,6.495-25.912h52.717c1.19,0,2.343-0.114,3.45-0.327c0.799,0.206,1.632,0.327,2.496,0.327h80.046  c6.032,0,11.153-2.803,13.699-7.497C438.169,228.37,437.718,222.518,434.408,217.433z M316.983,73.486l33.149,50.995  c-4.047,0.828-6.709,2.556-8.64,3.815c-1.901,1.239-2.613,1.703-4.84,1.703c-2.226,0-2.938-0.463-4.838-1.702  c-2.626-1.711-6.594-4.298-13.574-4.298c-6.979,0-10.948,2.586-13.574,4.298c-1.9,1.239-2.612,1.702-4.838,1.702  c-2.223,0-2.934-0.463-4.833-1.701c-1.201-0.783-2.689-1.748-4.612-2.566l-1.75-2.759L316.983,73.486z M202.319,24.207  l45.935,72.436c-2.794-1.205-6.457-2.272-11.699-2.272c-7.65,0-11.938,2.272-15.068,3.931c-2.435,1.29-3.905,2.069-7.578,2.069  c-3.672,0-5.142-0.779-7.576-2.069c-3.131-1.659-7.418-3.931-15.068-3.931c-7.649,0-11.937,2.272-15.067,3.932  c-2.434,1.29-3.903,2.068-7.575,2.068c-3.672,0-5.141-0.779-7.575-2.069c-1.237-0.655-2.659-1.405-4.393-2.074L202.319,24.207z   M77.816,220.579l69.828-110.135c2.514,0.211,3.888,0.923,5.913,1.996c3.13,1.659,7.418,3.931,15.067,3.931  s11.937-2.272,15.067-3.931c2.434-1.29,3.903-2.069,7.575-2.069s5.142,0.779,7.576,2.069c3.131,1.659,7.418,3.931,15.068,3.931  c7.65,0,11.938-2.272,15.069-3.931c2.435-1.29,3.904-2.069,7.577-2.069s5.143,0.779,7.578,2.069  c3.131,1.659,7.418,3.931,15.069,3.931c0.504,0,0.995-0.052,1.473-0.141l66.173,104.349H77.816z M350.139,220.579  c-0.419-1.062-0.947-2.111-1.593-3.129l-45.443-71.66c4.998-0.643,8.116-2.666,10.299-4.089c1.9-1.239,2.612-1.702,4.837-1.702  c2.226,0,2.938,0.463,4.838,1.702c2.626,1.711,6.594,4.298,13.574,4.298c6.98,0,10.949-2.586,13.575-4.297  c1.901-1.239,2.613-1.703,4.84-1.703s2.938,0.463,4.839,1.703c0.686,0.447,1.468,0.954,2.367,1.459l50.324,77.418H350.139z" fill="#222cae" data-original="#000000" style=""/>
<g xmlns="http://www.w3.org/2000/svg">
</g>
<g xmlns="http://www.w3.org/2000/svg">
</g>
<g xmlns="http://www.w3.org/2000/svg">
</g>
<g xmlns="http://www.w3.org/2000/svg">
</g>
<g xmlns="http://www.w3.org/2000/svg">
</g>
<g xmlns="http://www.w3.org/2000/svg">
</g>
<g xmlns="http://www.w3.org/2000/svg">
</g>
<g xmlns="http://www.w3.org/2000/svg">
</g>
<g xmlns="http://www.w3.org/2000/svg">
</g>
<g xmlns="http://www.w3.org/2000/svg">
</g>
<g xmlns="http://www.w3.org/2000/svg">
</g>
<g xmlns="http://www.w3.org/2000/svg">
</g>
<g xmlns="http://www.w3.org/2000/svg">
</g>
<g xmlns="http://www.w3.org/2000/svg">
</g>
<g xmlns="http://www.w3.org/2000/svg">
</g>
</g></svg>
